<?xml version="1.0" encoding="UTF-8" standalone="no"?>
<!DOCTYPE svg PUBLIC "-//W3C//DTD SVG 1.1//EN" "http://www.w3.org/Graphics/SVG/1.1/DTD/svg11.dtd">
<svg width="100%" height="100%" viewBox="0 0 500 500" version="1.1" xmlns="http://www.w3.org/2000/svg" xmlns:xlink="http://www.w3.org/1999/xlink" xml:space="preserve" xmlns:serif="http://www.serif.com/" style="fill-rule:evenodd;clip-rule:evenodd;stroke-linejoin:round;stroke-miterlimit:2;">
    <g transform="matrix(1,0,0,1,-522.485,0)">
        <g id="Artboard1" transform="matrix(1.00025,0,0,1.00025,1108.67,51.4441)">
            <rect x="-586.036" y="-51.431" width="499.877" height="499.877" style="fill:none;"/>
            <g transform="matrix(1.00268,0,0,0.999754,-1110.93,-51.4314)">
                <path d="M1020.67,249.468C1020.67,113.157 910.323,2.49 774.41,2.49L772.371,2.49C636.458,2.49 526.114,113.157 526.114,249.468C526.114,385.779 636.458,496.445 772.371,496.445L774.41,496.445C910.323,496.445 1020.67,385.779 1020.67,249.468Z" style="fill:rgb(30,37,53);"/>
            </g>
            <g transform="matrix(0.83156,0,0,0.83156,-978.098,-11.6118)">
                <g transform="matrix(-2.44085,0,0,-2.44085,4952.51,2448.6)">
                    <path d="M1736.08,988.375C1731.31,988.65 1727.66,984.142 1728.89,979.51L1730.56,973.103L1728.56,971.952C1724.01,984.366 1718.38,991.701 1712.29,991.707C1706.13,991.7 1700.45,984.246 1695.9,971.656L1693.17,972.388L1695.29,980.217C1696.53,984.78 1692.31,988.897 1687.76,987.619C1680.49,985.618 1673.36,982.665 1666.52,978.716C1659.68,974.767 1653.56,970.065 1648.19,964.775C1644.81,961.468 1646.26,955.754 1650.83,954.545L1658.68,952.473L1657.94,949.741C1644.76,952.09 1635.47,950.899 1632.39,945.574C1629.35,940.296 1632.88,931.749 1641.36,921.597L1639.36,920.446L1634.65,925.095C1631.25,928.475 1625.52,927.57 1623.37,923.296C1617.76,912.172 1614.15,900.128 1612.7,887.77C1607.97,926.389 1626.15,965.904 1661.98,986.587C1697.8,1007.27 1741.11,1003.26 1772.18,979.855C1760.76,984.78 1748.52,987.674 1736.08,988.375Z" style="fill:rgb(65,160,223);fill-rule:nonzero;"/>
                </g>
                <g transform="matrix(-2.44085,0,0,-2.44085,4952.51,2448.6)">
                    <path d="M1687.84,811.625C1692.62,811.35 1696.26,815.858 1695.04,820.49L1693.37,826.897L1695.36,828.048C1699.92,815.634 1705.55,808.299 1711.64,808.293C1717.79,808.301 1723.47,815.754 1728.03,828.344L1730.76,827.612L1728.63,819.783C1727.39,815.22 1731.61,811.103 1736.17,812.381C1743.43,814.382 1750.57,817.335 1757.41,821.284C1764.24,825.233 1770.37,829.935 1775.73,835.225C1779.12,838.533 1777.66,844.246 1773.09,845.456L1765.25,847.527L1765.98,850.259C1779.16,847.91 1788.46,849.101 1791.54,854.427C1794.58,859.704 1791.04,868.251 1782.57,878.403L1784.56,879.554L1789.28,874.905C1792.67,871.525 1798.4,872.43 1800.55,876.704C1806.16,887.828 1809.78,899.872 1811.22,912.23C1815.96,873.611 1797.77,834.096 1761.95,813.413C1726.13,792.729 1682.82,796.736 1651.74,820.145C1663.17,815.22 1675.4,812.326 1687.84,811.625Z" style="fill:rgb(65,160,223);fill-rule:nonzero;"/>
                </g>
                <g transform="matrix(-2.44085,0,0,-2.44085,4952.51,2448.6)">
                    <path d="M1798.54,949.991C1796.27,953.927 1790.6,955.595 1782.44,955.268C1790.11,937.658 1779.81,922.452 1755.48,903.345L1760.29,899.263C1788.04,920.231 1804.06,940.44 1798.54,949.991Z" style="fill:rgb(65,160,223);fill-rule:nonzero;"/>
                </g>
                <g transform="matrix(-2.44085,0,0,-2.44085,4952.51,2448.6)">
                    <path d="M1729.48,939.62C1719.5,935.138 1708.98,929.765 1698.33,923.615C1650.51,896.003 1617.85,863.058 1625.38,850.009C1630.48,841.175 1652.72,843.732 1681.42,854.911C1662.13,851.518 1645.89,852.217 1643.24,856.8C1637.03,867.558 1684.56,908.343 1729.77,934.658L1729.48,939.62Z" style="fill:rgb(65,160,223);fill-rule:nonzero;"/>
                </g>
                <g transform="matrix(-2.44085,0,0,-2.44085,4952.51,2448.6)">
                    <path d="M1736.57,917.006L1737.17,909.658C1779.74,880.848 1786.35,866.612 1783.73,862.093C1778.63,853.272 1735.46,864.146 1702.32,883.287C1669.16,902.435 1638.15,934.373 1643.25,943.194C1645.9,947.778 1662.13,948.472 1681.43,945.088C1652.74,956.252 1630.49,958.843 1625.38,949.994C1617.85,936.946 1650.51,904.003 1698.33,876.387C1746.16,848.77 1791.01,836.957 1798.54,850.006C1805.48,862.032 1778.3,890.933 1736.57,917.006Z" style="fill:rgb(65,160,223);fill-rule:nonzero;"/>
                </g>
                <g transform="matrix(-2.44085,0,0,-2.44085,4952.51,2448.6)">
                    <path d="M1711.96,999.986C1701.75,999.988 1692.86,979.419 1688.18,948.986C1694.91,967.398 1703.62,981.106 1708.91,981.107C1719.1,981.112 1731.25,938.287 1731.25,899.991C1731.26,861.722 1719.09,818.894 1708.9,818.889C1703.61,818.888 1694.9,832.608 1688.19,851.01C1692.87,820.568 1701.75,800.017 1711.96,800.014C1727.03,800.014 1739.23,844.771 1739.23,899.999C1739.22,955.226 1727.03,999.985 1711.96,999.986Z" style="fill:rgb(65,160,223);fill-rule:nonzero;"/>
                </g>
                <g transform="matrix(-2.44085,0,0,-2.44085,4952.51,2448.6)">
                    <path d="M1700.11,937.003C1667.53,952.441 1639.63,958.951 1628.93,953.272L1643.25,943.194C1651.74,950.611 1700.11,937.003 1700.11,937.003Z" style="fill:rgb(65,160,223);fill-rule:nonzero;"/>
                </g>
                <g transform="matrix(-2.44085,0,0,-2.44085,4952.51,2448.6)">
                    <path d="M1784.62,906.409C1787.97,908.345 1792.26,907.196 1794.2,903.843C1796.13,900.489 1794.99,896.201 1791.63,894.264C1788.28,892.328 1783.99,893.477 1782.06,896.831C1780.12,900.184 1781.27,904.473 1784.62,906.409Z" style="fill:rgb(65,160,223);fill-rule:nonzero;"/>
                </g>
                <g transform="matrix(-2.44085,0,0,-2.44085,4952.51,2448.6)">
                    <path d="M1677.19,960.713C1674.71,959.28 1671.53,960.13 1670.1,962.611C1668.67,965.093 1669.52,968.266 1672,969.699C1674.48,971.131 1677.65,970.281 1679.09,967.8C1680.52,965.318 1679.67,962.145 1677.19,960.713Z" style="fill:rgb(65,160,223);fill-rule:nonzero;"/>
                </g>
                <g transform="matrix(-2.44085,0,0,-2.44085,4952.51,2448.6)">
                    <path d="M1669.15,837.629C1671.63,839.061 1674.8,838.211 1676.23,835.73C1677.67,833.248 1676.82,830.075 1674.34,828.643C1671.85,827.21 1668.68,828.06 1667.25,830.542C1665.82,833.023 1666.67,836.196 1669.15,837.629Z" style="fill:rgb(65,160,223);fill-rule:nonzero;"/>
                </g>
                <g transform="matrix(-2.44085,0,0,-2.44085,4952.51,2448.6)">
                    <path d="M1762.75,942.188C1758.89,939.961 1753.96,941.282 1751.74,945.139C1749.51,948.997 1750.83,953.929 1754.69,956.156C1758.54,958.383 1763.48,957.061 1765.7,953.204C1767.93,949.347 1766.61,944.415 1762.75,942.188Z" style="fill:rgb(65,160,223);fill-rule:nonzero;"/>
                </g>
                <g transform="matrix(-2.44085,0,0,-2.44085,4952.51,2448.6)">
                    <path d="M1705.81,869.89C1700.36,866.745 1693.4,868.611 1690.25,874.059C1687.11,879.506 1688.97,886.472 1694.42,889.616C1699.87,892.762 1706.83,890.895 1709.98,885.448C1713.12,880.001 1711.25,873.035 1705.81,869.89Z" style="fill:rgb(65,160,223);fill-rule:nonzero;"/>
                </g>
            </g>
        </g>
    </g>
</svg>
